<?xml version="1.0" encoding="utf-8"?>
<!-- Generator: Adobe Illustrator 16.2.0, SVG Export Plug-In . SVG Version: 6.00 Build 0)  -->
<!DOCTYPE svg PUBLIC "-//W3C//DTD SVG 1.1//EN" "http://www.w3.org/Graphics/SVG/1.1/DTD/svg11.dtd">
<svg version="1.1" id="Layer_1" xmlns="http://www.w3.org/2000/svg" xmlns:xlink="http://www.w3.org/1999/xlink" x="0px" y="0px"
	 width="595.279px" height="58.04px" viewBox="0 393.925 595.279 58.04" enable-background="new 0 393.925 595.279 58.04"
	 xml:space="preserve">
<path fill="#CBCBCB" d="M21.132,437.083C9.227,437.083,0,427.856,0,415.653c0-11.906,8.631-21.729,21.43-21.729
	c7.739,0,12.203,2.679,16.072,6.548l-4.762,5.655c-3.274-3.272-6.847-5.356-11.608-5.356c-8.036-0.299-13.691,6.548-13.691,14.585
	c0,8.035,5.953,14.584,13.691,14.584c5.356,0,8.037-2.084,11.906-5.655l4.762,4.763C33.633,434.107,28.871,437.083,21.132,437.083z
	 M44.944,394.819v41.372h7.441v-41.372H44.944z M87.804,408.51c0,4.464-3.274,7.144-8.334,7.144H69.052v-14.287H79.47
	C84.827,401.366,87.804,404.045,87.804,408.51z M96.733,436.19L85.72,420.713c5.953-1.786,9.822-5.953,9.822-12.501
	c0-8.036-5.952-13.097-15.478-13.097H61.612v41.372h7.441v-14.286h8.929l10.12,14.286L96.733,436.19
	C96.733,436.488,96.733,436.19,96.733,436.19z M186.918,394.819h-7.441v24.108c0,7.738-4.167,11.608-10.417,11.608
	c-6.548,0-10.418-4.168-10.418-11.608v-23.812h-7.439v24.109c0,11.905,6.846,18.156,17.561,18.156s17.858-6.549,17.858-18.454
	C186.918,418.331,186.918,394.819,186.918,394.819z M226.206,394.819h-30.657v41.372h30.955v-6.549h-23.813v-11.013h20.835v-6.548
	h-20.835v-10.716h23.515V394.819L226.206,394.819z M282.758,415.653c0,8.334-5.655,13.988-14.287,13.988h-8.036v-27.978h8.036
	C277.103,401.366,282.758,407.616,282.758,415.653z M290.199,415.356c0-11.608-8.931-20.835-22.025-20.835h-15.479v41.372h15.479
	C281.568,436.19,290.199,427.559,290.199,415.356z M333.357,394.819h-7.44v24.108c0,7.738-4.166,11.608-10.418,11.608
	c-6.548,0-10.416-4.168-10.416-11.608v-23.812h-7.441v24.109c0,11.905,6.846,18.156,17.561,18.156
	c10.717,0,17.858-6.549,17.858-18.454v-24.108H333.357L333.357,394.819z M365.203,405.83c0-2.977,2.382-5.061,6.847-5.061
	c3.869,0,7.44,1.488,11.013,4.466l4.167-5.655c-4.167-3.274-8.929-5.357-15.18-5.357c-8.036,0-13.989,4.762-13.989,11.905
	c0,7.739,5.061,10.12,13.691,12.203c7.738,1.786,9.228,3.274,9.228,6.549c0,3.273-2.977,5.357-7.441,5.357
	c-5.356,0-8.929-2.084-13.096-5.655l-4.465,5.357c5.06,4.465,10.715,6.846,17.263,6.846c8.632,0,14.585-4.763,14.585-12.203
	c0-7.144-4.763-10.12-13.097-12.203C367.287,410.593,365.203,409.105,365.203,405.83z M429.791,415.653
	c0,8.334-5.952,14.585-13.988,14.585c-8.334,0-13.989-6.847-13.989-14.585c0-8.036,5.953-14.584,13.989-14.584
	C423.839,400.771,429.791,407.616,429.791,415.653z M437.234,415.356c0-11.608-8.93-21.432-21.728-21.432
	c-12.8,0-21.729,9.524-21.729,21.729c0,11.607,8.93,21.431,21.729,21.431C428.602,437.083,437.234,427.559,437.234,415.356z
	 M445.27,436.19h28.871v-6.847h-21.729v-34.823h-7.44v41.669H445.27z M511.644,394.819h-30.657v41.372h30.954v-6.549H488.13v-11.013
	h20.835v-6.548H488.13v-10.716h23.514V394.819L511.644,394.819L511.644,394.819z M519.978,394.819v41.372h7.44v-41.372H519.978z
	 M536.348,436.19h28.871v-6.847H543.49v-34.823h-7.439v41.669H536.348z M136.32,415.653c0-8.036-5.952-14.584-13.988-14.584
	s-13.989,6.846-13.989,14.584c0,8.334,5.953,14.585,13.989,14.585C130.664,430.238,136.32,423.987,136.32,415.653z M115.187,435.893
	c-8.632-2.977-14.287-10.716-14.287-20.239c0-11.608,8.93-21.729,21.729-21.729c12.798,0,21.728,9.524,21.728,21.432
	c0,8.929-5.356,16.668-13.097,19.94c3.274,1.488,5.061,2.978,9.524,5.357c7.738,3.571,14.585,7.144,25.598,7.144
	c8.334,0,17.263-3.273,21.43-6.846l1.488,2.084c-5.357,5.356-16.966,8.929-27.383,8.929c-5.655,0-13.395-0.893-20.537-4.167
	c-4.763-2.083-10.715-5.655-15.18-7.439C122.925,439.166,117.568,436.785,115.187,435.893z M584.863,415.356
	c5.655,0,10.417,4.464,10.417,10.417c0,5.952-4.762,10.417-10.417,10.417s-10.417-4.465-10.417-10.417
	C574.446,419.82,579.206,415.356,584.863,415.356z M584.863,434.404c4.763,0,8.334-3.869,8.334-8.931
	c0-5.06-3.571-8.631-8.334-8.631c-4.762,0-8.632,3.869-8.632,8.631C576.529,430.535,580.101,434.404,584.863,434.404z
	 M580.992,419.522h4.763c2.977,0,4.167,1.19,4.167,3.571c0,2.084-1.488,2.978-3.273,3.274l3.571,5.356h-2.083l-3.274-5.061h-2.083
	v5.061h-1.786L580.992,419.522L580.992,419.522z M582.78,424.88h2.083c1.786,0,3.274,0,3.274-2.084c0-1.488-1.488-1.786-2.68-1.786
	h-2.382L582.78,424.88L582.78,424.88L582.78,424.88z"/>
</svg>
