<?xml version="1.0" encoding="utf-8"?>
<!-- Generator: Adobe Illustrator 16.0.0, SVG Export Plug-In . SVG Version: 6.00 Build 0)  -->
<!DOCTYPE svg PUBLIC "-//W3C//DTD SVG 1.1//EN" "http://www.w3.org/Graphics/SVG/1.1/DTD/svg11.dtd">
<svg version="1.1" id="Layer_1" xmlns="http://www.w3.org/2000/svg" xmlns:xlink="http://www.w3.org/1999/xlink" x="0px" y="0px"
	 width="570px" height="570px" viewBox="0 0 570 570" enable-background="new 0 0 570 570" xml:space="preserve">
<g>
	<path d="M231.512,394.224c2.048,1.696,2.402,4.519,1.695,6.922c-0.565,1.41-1.977,3.11-3.533,3.534
		c-2.188,0.774-4.73,0.21-6.427-1.132c-1.2-1.2-1.907-2.683-2.049-4.238c-0.142-2.118,0.849-3.674,2.191-5.086
		C225.297,392.175,229.605,392.175,231.512,394.224z M287.314,405.031c-1.485,0.284-3.037,1.555-3.394,3.039
		c-0.492,1.622,0,3.315,1.204,4.448c1.061,0.989,2.759,1.2,4.239,0.848c1.134-0.707,2.19-1.626,2.686-2.896
		c0.494-1.412-0.069-2.824-0.849-3.884C290.217,405.314,288.803,405.031,287.314,405.031z M237.093,260.582
		c-3.108-4.099-5.652-8.477-6.216-13.704c-0.072-1.623-0.566-4.025,0.848-5.226c4.732,3.603,8.758,9.394,15.749,7.062
		c4.026,0,5.086,5.653,9.112,4.592c-8.336-6.5-16.953-12.642-25.567-18.437c-1.432,1.972-2.255,3.277-3.429,4.424
		c-1.176,1.15-18.045,7.658-24.684,2.498c-0.495-0.918-0.425-2.047-1.203-2.895c-1.269-1.486-3.177-1.626-5.082-1.486
		c-0.849,0.213-2.05,1.062-2.05,1.696C196.335,240.312,237.093,260.582,237.093,260.582z M298.755,205.743
		c-0.999-0.526-11.064-0.411-11.064-0.411c1.554,11.089,4.433,21.771,6.411,32.93C294.102,238.261,298.583,206.861,298.755,205.743z
		 M284.064,205.344c-3.107,0.071-6.145,0.425-9.115,0.99L280.532,236L284.064,205.344z M301.02,206.052
		c-1.412,9.396-3.037,18.93-4.024,28.255c0.283-0.566,8.062-5.664,7.295-13.555c3.11-4.801,9.658-6.364,14.742-7.775
		c-2.683,5.791-7.346,10.666-7.133,17.658c-1.06,2.331-3.391,4.096-3.743,6.779c5.652-7.698,17.25-23.679,17.25-23.679
		C317.92,209.987,309.709,206.898,301.02,206.052z M256.938,211.279c2.331,4.661,6.571,8.123,11.375,10.028
		c5.016,3.247,4.309,9.962,8.97,13.706c-1.413-9.468-3.181-18.859-5.086-28.115C266.759,207.395,261.742,209.088,256.938,211.279z
		 M290.281,320.995c-5.158,0.424-9.952-0.603-14.854-1.266l-1.041,2.448c5.165,1.222,10.582,1.712,16.099,1.496L290.281,320.995z
		 M245.443,321.439c-0.961,0.499-1.904,1.263-2.847,1.968c19.143,16.81,51.095,20.423,74.053,9.335
		c0.496-1.2-0.067-2.473-0.145-3.674c-15.256,7.767-35.589,9.702-55.294,1.94C256.036,328.858,250.169,325.263,245.443,321.439z
		 M246.389,315c-4.879-3.785-7.939-8.507-11.274-13.167c-0.919-0.143-1.412,0.637-2.263,0.637c-0.846-1.272,0.143-2.687,0.566-3.886
		c-5.014-9.326-7.203-20.412-6.64-31.362h-3.389c-0.844,19.598,6.422,37.548,20.882,51.014L246.389,315z M236.808,273.154v-5.933
		h-2.895l-0.211,6.076C233.686,273.396,236.882,273.312,236.808,273.154z M241.541,272.102c0.07-1.374-0.238-3.61,0.002-4.88
		c-0.285-0.071-2.224,0.062-2.758,0.019c-0.308,2.164-0.13,3.045-0.164,5.397L241.541,272.102z M231.723,267.222h-2.897
		c-0.421,10.453,1.272,20.483,5.726,29.173l2.752-1.907c-3.148-5.941-5.534-15.242-5.483-19.718
		C231.661,274.771,231.865,269.484,231.723,267.222z M249.603,310.9c-1.148-0.751-6.848-6.966-9.404-10.977
		c-1.129,0.144-2.259,0.425-3.105,0.849c2.551,4.896,5.971,9.096,10.214,13.039C247.307,313.814,248.808,311.961,249.603,310.9z
		 M243.376,319.278c-14.828-13.349-22.602-31.36-21.824-52.057h-3.247c-0.985,21.106,6.982,41.203,22.822,54.832
		C241.05,322.059,243.466,319.309,243.376,319.278z M326.944,315.888c-1.978,1.769-4.309,3.53-6.568,5.088l0.495,3.532
		c2.895-1.412,5.672-3.965,8.428-6.157L326.944,315.888z M291.577,330.443c-8.339,1.201-16.203-0.428-23.619-2.546
		c-1.199,0.706-2.754,1.06-3.532,2.05c8.532,2.935,18.036,5.036,27.622,3.703C292.048,333.65,291.651,330.416,291.577,330.443z
		 M290.869,325.878c-6.989,0.924-12.104-0.608-17.561-1.952c-0.987,0.704-2.341,1.852-3.224,2.691
		c6.642,1.693,13.805,3.276,21.228,2.148C291.312,328.766,290.92,325.792,290.869,325.878z M253.407,212.976
		c-2.969,1.693-6.216,3.247-8.475,5.791c5.437,6.147,10.807,12.716,16.247,18.646c0.494-4.873-2.965-8.618-6.431-11.23
		C252.138,222.439,252.348,217.352,253.407,212.976z M327.51,214.811c-5.79,8.051-11.864,15.966-16.951,23.946l23.379-19.142
		C332.172,217.778,329.843,216.01,327.51,214.811z M243.025,219.754c-1.482,1.059-3.249,2.612-4.239,4.239l21.051,15.114
		C254.183,232.54,249.028,226.04,243.025,219.754z M337.113,222.794l-18.294,24.58c4.099-2.474,4.737-7.418,8.97-9.677
		c4.451-2.968,10.95-3.674,15.966-1.343c-0.848,3.249-4.237,5.438-5.581,8.477c-1.835,5.935-3.603,11.725-8.688,16.314h0.356
		l52.55-23.732c-0.212-1.201-1.483-1.979-2.543-2.399c-1.128-0.214-2.756-0.425-3.742,0.352c-2.048,0.777-2.121,3.247-3.178,4.875
		c-7.77,3.248-18.577,2.684-24.585-3.886C345.238,231.552,341.849,226.606,337.113,222.794z M235.114,228.09
		c-1.201,1.556-2.288,3.081-3.17,4.936c8.121,5.935,16.377,12.018,24.641,17.948C249.381,242.995,242.602,235.505,235.114,228.09z
		 M382.746,239.604l-56.438,26.276l50.01,0.494l1.484,1.836c1.344,0.567,2.966,0.776,4.098-0.282
		c0.849-0.848,1.201-2.188,0.988-3.603c-0.428-0.916-1.063-2.119-2.191-2.33c-1.626-0.564-3.107,0.07-4.236,1.343
		c-6.571-0.142-13.28,0.283-19.638-0.352c4.309-8.266,11.371-14.199,19.283-19.004c1.624,0.85,4.028,0.709,5.438-0.492
		c1.063-0.919,1.906-2.471,1.556-3.885h-0.353V239.604z M193.581,240.944l-0.21,2.405c0.421,1.059,1.269,2.188,2.401,2.683
		c1.836,1.201,4.024-0.142,5.72-0.142c6.712,2.615,14.198,8.548,16.458,15.753l-0.354,0.351h-18.645
		c-0.569-0.422-1.132-0.849-1.695-1.412c-0.99-0.07-1.907-0.495-2.827,0c-1.695,0.706-1.624,2.403-1.552,3.955
		c0.281,1.273,1.625,2.05,2.896,2.189c1.271-0.07,2.188-1.059,3.179-1.906c15.044-0.21,29.455,0.424,44.075,0.21L193.581,240.944z
		 M216.256,267.222h-15.753c1.907,2.612,2.967,5.51,4.379,8.336l11.585-0.849L216.256,267.222z M337.966,267.714
		c0.703,4.876-0.353,9.539-0.992,14.058l2.401,1.907c0.991-5.085,2.264-10.312,1.487-15.965H337.966L337.966,267.714z
		 M343.047,267.714c0.354,5.936-0.281,12.293-1.972,17.804l1.832,3.601c2.261-6.568,3.815-14.338,2.9-21.404H343.047z
		 M347.995,267.714c0,4.451-0.353,9.962-1.201,14.624c0.281,4.521-5.793,9.748-0.636,12.998c3.812-8.336,6.003-17.589,5.227-27.622
		H347.995z M353.22,267.714c0.424,10.881-1.975,20.558-5.721,29.671c0.426,0.775,1.134,1.695,0.848,2.543l-2.047-0.497
		c-2.965,6.431-7.771,12.362-12.715,17.66c0.778,0.706,1.2,1.981,2.19,2.329c14.266-14.195,21.404-32.136,20.695-51.704h-3.251
		V267.714z M371.727,274.143l-13.211-0.493l-1.337,10.029c4.587,0.706,9.035,1.98,13.841,2.191L371.727,274.143z M233.843,275.629
		c0.421,7.897,2.115,12.056,5.075,17.836l2.41-1.31c-0.988-3.037-2.33-5.862-3.036-8.968c-0.6-1.826-0.701-5.085-1.094-7.03
		C236.445,275.938,235.539,275.779,233.843,275.629z M238.999,276.191c0.565,5.371,2.049,10.454,4.238,14.908
		c0.989-0.146,2.049-0.637,2.33-1.697c-1.906-4.026-2.895-8.548-3.884-12.999L238.999,276.191z M344.958,297.029
		c-6.358-0.778-7.28-9.396-13.213-11.159c-5.085,0.634-10.592-0.567-14.621-4.1c-3.528,0-7.271,0.991-10.172-1.13
		c-0.773,0.92-1.621,1.839-1.832,3.038c2.966,3.321,8.122,3.603,12.217,2.333c3.956-0.922,5.366,4.449,9.466,3.246
		c-1.342,3.815-3.673,7.207-6.641,10.312l-9.463-11.865c-0.427,0.143-0.991-0.213-1.204,0.353c0,0,25.457,33.103,25.313,33.527
		c0.074-0.068-33.295-34.374-33.295-34.374c-0.778,0.423-1.695,0.988-2.189,1.905l15.256,15.4c-0.986,1.201-2.401,2.12-3.741,2.896
		c0-6.005-6.499-8.828-8.267-14.057c-0.494-0.354-0.775-1.06-1.341-1.06c-0.638,5.229,6.146,6.991,7.416,11.374
		c-0.493,6.43,2.685,12.149,8.335,15.257c3.106,3.25,1.97,9.014,1.05,12.897c0.92-6.921-6.622-12.71-10.587-15.089
		c-3.742-4.237-1.339-11.018-5.934-14.761c-3.743-3.038-4.306-7.346-6.072-11.161c-0.495,0.071-0.989,0.354-1.343,0.849
		c0.208,2.825-1.415,6.782,1.343,8.76c3.387,2.894,6.71,6.428,7.485,10.737c-2.189,1.199-4.664,1.693-7.133,2.188
		c-0.07-3.392,0.706-6.992,0.636-10.383l-2.328-2.333l-0.354,0.496c-0.355,11.02-0.154,21.517-0.79,32.817
		c-0.095,0.018-3.45-31.473-4.156-41.293c-1.061-0.638-2.547-0.212-3.892-0.354v1.91c1.345,6.568,2.76,13.207,4.102,19.775
		c-4.102,0.425-8.269,0.142-11.871-0.987c1.131-3.742,6.074-4.379,6.778-8.478c0.57-2.26-0.492-5.156,0.851-7.132
		c-0.07-1.344-0.425-2.543-1.062-3.744c-5.789,3.814,1.978,12.01-5.722,14.975c-5.79,3.389-1.764,10.171-6.78,14.197
		c-2.754,3.532-7.681,3.296-9.873,7.604c-0.213-6.428,7.756-7.394,8.814-13.041c0.706-4.946,2.188-9.747,6.497-12.998
		c2.615-3.743-0.353-9.817,2.543-13.421c-1.624-2.896-3.179,1.2-4.803,1.837c-2.544,3.958,1.838,8.617-1.342,12.432l-4.027,4.733
		c-2.329-0.352-4.165-1.837-6.145-3.035c2.755-3.111,6.639-5.513,9.818-8.478l-0.141-3.743
		c-10.522,8.899-20.556,18.851-30.938,28.386c-0.063-0.054,7.026-9.694,7.548-10.109c7.202-8.052,15.903-18.205,23.037-26.963
		c0.14-0.638-0.78-1.204-1.201-1.836c-1.344,0.138-14.059,17.799-14.059,17.799c-1.976-1.626-4.448-4.238-5.577-6.782
		c3.955-2.471,10.24-0.14,12.573-5.934c2.33-0.777,4.024-2.684,5.084-4.945c-1.838-0.282-4.238-0.282-5.651,1.413
		c-1.339,2.967-4.098,5.157-7.627,4.876c-4.876-0.848-6.004,6.072-10.666,5.791c-4.098,0.424-8.053,1.272-11.16,4.026
		c1.486-3.813,6.004-6.357,9.817-7.629c4.724-0.169,5.015-5.509,8.971-5.935c4.237,0.426,7.205-2.402,8.829-5.581
		c1.554-2.541,6.499-0.21,6.073-4.024c-2.257-1.062-5.085-0.423-6.921,1.13c-2.189,3.743-5.935,7.277-10.522,6.992
		c-1.201,0.21-1.91,1.555-2.898,2.33c-1.481-3.18-2.544-6.853-3.036-10.665c4.733,0.284,9.818,1.06,14.621,1.696l2.19-2.27
		l-0.707-0.064l-27.725-1.79c0.354-0.221,5.983-1.033,6.356-0.926c5.162-0.575,18.47-1.663,27.3-2.226
		c0.635-0.988,0.21-2.403,0.353-3.533c-7.769,0.492-15.188,3.039-23.025,4.026c0-1.483-0.146-3.107,0.14-4.589
		c4.46-0.347,9.252-0.214,13.916-0.285l0.829-0.017c-3.957-2.473-7.683-7.118-13.049-6.128c-5.229-0.778-10.384-5.016-11.514-10.312
		c-0.212-1.837-0.99-3.817-0.708-5.439c2.192,3.674,5.934,7.487,10.664,6.641c2.896-1.555,5.936,0.424,8.338,1.977
		c3.264,5.36,8.404,0.99,12.57,3.109v-0.707l-27.335-30.867v-0.355h0.849l32.561,24.793h0.144c0.776-4.875-2.049-9.181-6.218-11.514
		c-2.894-2.826-0.635-7.769-3.389-10.523c-3.814-2.05-6.782-5.863-6.498-10.384c-0.284-1.198,0.492-1.976,0.704-3.037
		c1.767,6.075,9.537,6.991,13.07,12.078c2.12,3.391,2.26,8.124,6.429,10.312c3.6,1.838,4.238,6.711,6.921,9.325l0.353-0.495
		l2.189-21.402c0,0,1.199-8.686,1.412-12.997l8.132,37.44l0.352,0.349c5.931-2.965,1.27-10.242,5.085-14.408
		c3.529-2.752,7.493-6.115,6.695-11.232c1.627-3.815,5.522-6.496,9.548-7.062c-2.963,3.813-6.211,7.7-5.081,12.995
		c-1.13,6.077-8.83,10.104-6.077,17.165c10.241-8.336,20.695-17.165,31.01-25.284l-2.543,3.881l-21.899,30.371
		c-0.281,0.146-0.138,0.495-0.138,0.709c5.086-0.709,5.934-7.627,11.019-8.475c4.095-6.148,9.96-11.019,17.588-10.032v0.494
		c-9.251,5.158-5.366,17.8-15.892,21.192c-4.025,1.202-8.121,3.178-11.02,6.285l0.494,0.354c7.556,0.637,14.975,1.834,22.888,1.834
		c0.421,4.451,0.067,8.903-0.988,12.93l-2.544-0.213c0.493-3.813,1.059-7.557,0.849-11.653c-7.841,0.281-15.688,1.341-23.592,1.976
		c-0.638,1.202-0.991,2.826-0.354,4.101l21.684-5.229l0.354,0.493c-0.144,3.391-0.283,6.78-1.203,9.819
		c-4.66,0.563-7.274-5.437-12.499-4.378c-1.346,0.07-2.97-0.07-4.1-0.849c-1.27,0.426-2.753,0.354-3.882,1.343
		c3.528,3.251,9.815-0.142,13.418,2.898c4.023,6.355,13.987,0.707,16.387,8.97C341.075,291.098,342.625,294.206,344.958,297.029z
		 M306.6,259.453c0.427,0.14,0.566-0.354,0.849-0.566l21.052-29.455l-23.877,25.783C303.846,256.91,306.244,257.757,306.6,259.453z
		 M299.82,251.966c0.424,0.35,0.849,0.986,1.413,0.491l1.978-4.378c-0.848-5.437,0.992-10.594,4.591-14.62
		c3.676-3.603,0.427-10.028,4.099-13.705c-2.047,1.272-3.672,3.321-3.603,5.792c0.212,4.521-2.333,7.913-4.873,11.302
		C299.82,241.513,303.818,246.887,299.82,251.966z M286.816,220.249l0.498,28.327l5.584,0.139
		C291.132,239.179,289.084,229.5,286.816,220.249z M278.481,250.764c1.133-0.919,3.887-0.07,3.534-2.049
		c-3.04-2.614-2.755-6.71-5.58-9.464c-4.38-2.191-6.71-6.711-7.769-11.02c-2.121-4.801-7.7-4.945-10.879-8.97
		c0.848,3.532,4.662,4.661,7.133,6.778c3.959,2.897,2.896,7.844,5.439,11.373C275.163,240.099,278.131,245.326,278.481,250.764z
		 M272.055,255.71l0.99-0.709c0.495-0.989-0.566-1.696-0.635-2.686l-22.888-17.302L272.055,255.71z M267.958,262.842
		c0.495-0.565,0.566-1.198,0.851-1.696c-0.777-1.409-2.192-2.046-3.393-2.752c-3.884-3.109-10.101,2.188-12.856-3.179
		c-4.679-4.929-8.873-1.307-13.419-3.109l0.847,0.848c4.099,4.309,10.41,0.47,14.621,5.935
		C258.281,261.994,264.215,259.736,267.958,262.842z M305.26,259.946c-3.744-6.216-10.104-9.535-17.095-9.677
		c-3.75-0.21-7.129,0.914-10.034,2.401c-1.128,0.92-4.027,2.969-5.58,5.086c-4.945,5.935-6.005,15.328-2.543,22.18
		c3.461,6.922,10.525,10.735,17.947,11.017c7.203-0.067,13.492-4.447,17.305-10.311C309.145,274.638,308.861,265.95,305.26,259.946z
		 M310.206,265.386c4.445-2.12,8.261-6.359,13.351-7.134c6.707-2.968,7.836-9.96,10.166-15.609
		c-4.376,3.107-5.579,8.548-9.814,12.005c-5.724,1.627-10.735,5.864-15.259,9.678C308.861,265.03,309.284,265.597,310.206,265.386z
		 M294.454,274.709c-1.695-0.637-2.263,1.693-3.395,2.544c-1.762-0.567-3.816,1.129-5.301-0.213
		c-0.849-0.143-1.344,0.495-2.049,0.707c-3.813,1.766-4.309-3.53-6.072-5.297c0.209,2.118,0.988,4.022,1.199,6.145
		c0.425-0.21,0.21-0.919,0.848-0.706c0.778,1.344,2.613,0.283,3.533,1.344c2.754-0.638,5.656,1.34,8.129-0.282
		c1.271-0.638,2.543,0.21,3.251,1.126c-0.142-1.482,0.915-3.674,0.983-5.72c0.071-1.271,2.265-1.767,1.204-3.248L294.454,274.709z
		 M283.709,281.135l0.21,0.99c0.639,1.482,1.909,1.978,3.396,1.906c0.784-1.269,2.475-0.846,2.049-2.755
		C287.527,281.066,285.405,282.55,283.709,281.135z M282.227,272.163c0.282,0.71-0.634,1.486,0.354,1.839
		c0.423-0.353,0.493-0.919,1.128-0.704c1.91,1.34,4.279-1.335,5.94,0.209c0.494-0.92,0.778-1.904,0.848-2.894
		c0.068-0.991-1.344-1.062-1.838-0.498c0.919,2.404-1.982,1.414-2.689,2.686C284.415,273.86,283.499,271.673,282.227,272.163z
		 M302.929,278.736c-0.566,0.635-1.482,0.919-2.26,0.495c-3.815-2.969-0.073-7.278,0.564-10.667c0.426-2.259,3.46-1.625,3.675,0.351
		C305.755,272.378,305.12,276.123,302.929,278.736z M303.408,267.902c-2.118-0.296-2.316,4.475-3.378,6.807
		c-0.096,2.139,2.259,2.022,2.898,1.129c0.694-3.129,1.48-6.818,1.344-7.061C304.133,268.532,303.408,267.902,303.408,267.902z
		 M207.427,284.669c0.564,3.319,0.776,7.204,0.212,10.524l11.864-3.393c-0.706-2.894-1.342-5.862-2.049-8.827
		C214.136,283.54,210.676,283.892,207.427,284.669z M329.843,288.06c-1.906,4.168-4.03,8.263-7.279,11.865
		c-1.692,1.06-0.492,2.404,0.497,3.251c4.096-4.237,7.273-9.184,9.326-14.412C331.538,288.554,330.902,287.777,329.843,288.06z
		 M334.292,289.755c-2.406,5.368-5.3,10.596-9.892,15.114c0.213,0.849,0.991,1.839,1.695,2.191c3.534-3.532,6.146-7.49,8.688-11.725
		C335.846,293.568,336.836,291.167,334.292,289.755z M371.372,296.181l-16.104-4.873l-3.39,8.616
		c7.271,3.817,14.83,6.783,22.04,10.525l1.199,0.142c-1.199-4.45-2.688-8.901-3.036-13.703L371.372,296.181z M337.678,294.206
		c-2.68,5.154-6,10.171-10.168,14.548c0.212,0.92,1.062,1.768,1.695,2.405c4.659-4.378,7.908-9.467,10.666-14.977
		C339.164,295.336,338.245,294.912,337.678,294.206z M247.262,298.232c2.05,2.752,3.957,5.366,6.782,7.485
		c0.494-0.778,1.212-1.502,1.563-2.277c-1.767-1.908-3.894-4.36-5.589-6.69C248.985,297.302,248.039,297.736,247.262,298.232z
		 M341.566,297.384c-2.757,5.65-6.568,10.662-11.02,15.256c0.067,1.13,1.198,1.977,1.839,2.756
		c5.367-5.019,9.462-10.384,12.077-16.67L341.566,297.384z M222.048,298.938l-16.813,7.415c-0.986,6.497-3.531,12.646-8.121,17.303
		l29.173-17.093C224.521,304.163,223.672,301.197,222.048,298.938z M242.187,299.512c2.542,3.32,4.863,6.985,8.324,9.95
		c0.811-0.767,1.697-1.204,2.047-2.05c-2.752-2.473-4.872-5.297-6.991-8.332C244.508,299.218,243.397,299.149,242.187,299.512z
		 M311.368,309.312c0.135,1.075,0.462,1.705,1.027,2.479c2.047-1.129,4.095-2.33,5.931-4.025c-1.172-1.855-1.349-1.929-2.231-1.677
		C314.597,306.513,312.784,308.536,311.368,309.312z M378.509,324.718l-30.164-18.01l-3.882,5.79l19.636,14.764
		c4.877-0.848,9.604-1.837,14.553-2.401L378.509,324.718z M268.277,311.872c-2.323-0.618-5.608-2.782-7.021-3.817
		c-0.838,0.417-1.324,0.596-2.408,2.043c2.825,1.835,5.648,3.953,8.968,4.731C268.031,313.911,268.19,312.668,268.277,311.872z
		 M320.163,309.251c-2.263,1.126-4.169,3.105-6.428,4.237c0.546,1.164,0.594,1.007,2.189,1.907l5.795-4.238
		C321.348,310.369,320.798,309.955,320.163,309.251z M256.938,311.437l-1.836,1.699c3.392,2.823,7.391,4.741,11.232,6.375
		c1.279-0.53,1.103-1.537,1.454-2.388C263.905,315.713,260.471,313.771,256.938,311.437z M229.912,311.93
		c0,0-14.646,10.669-20.933,16.18c3.957,0.921,7.911,2.119,11.725,3.533c4.663-4.1,14.684-12.914,14.684-12.914L229.912,311.93z
		 M317.636,316.639c0.473,0.609,1.505,1.071,2.163,2.12l5.663-4.071c-0.628-1.004-1.602-1.577-2.198-2.068
		C322.01,313.415,319.872,315.306,317.636,316.639z M302.715,313.347c-2.12,0.863-5.339,1.175-7.234,1.843
		c-0.156,0.707-0.049,1.008-0.183,2.89c2.827-0.352,5.562-0.956,8.214-2.058L302.715,313.347z M253.196,314.548
		c0,0-1.874,1.519-2.331,1.979c1.39,1.706,8.848,5.767,11.274,6.649c1.061-0.266,1.28-0.883,2.781-2.061
		C260.756,319.633,257.014,316.949,253.196,314.548z M276.354,314.607l-0.438,2.782c2.251,0.929,8.519,1.724,13.774,1.456
		c-0.187-0.498-0.326-2.958-0.326-2.958C284.559,316.101,280.806,315.527,276.354,314.607z M341.354,318.079l-1.132-0.494
		l-5.083,5.438c2.826,3.675,7.273,7.845,10.666,11.517c2.965-1.346,5.861-3.039,8.968-4.098L341.354,318.079z M304.616,317.921
		c-1.812,0.616-7.465,1.898-9.228,2.075c-0.177,1.896-0.22,1.233-0.304,3.026c3.813-0.775,8.199-1.463,11.515-3.16
		C306.292,319.244,304.691,318.045,304.616,317.921z M246.981,320.126c4.167,3.252,8.192,5.583,12.855,7.77l1.344-2.542
		c-4.026-2.049-7.983-4.307-11.656-7.274C248.602,318.641,247.704,319.332,246.981,320.126z M308.765,321.188
		c-4.308,1.696-9.057,3.117-13.86,3.751l-0.307,3.664c6.284-0.986,12.298-2.295,17.524-5.475
		C310.848,322.351,310.267,321.805,308.765,321.188z M313.798,324.544c-6.142,3.106-12.493,4.907-19.557,5.897l-0.353,3.036
		c8.053-0.706,14.728-2.957,21.721-6.065C315.253,326.35,314.786,325.117,313.798,324.544z M245.896,328.089l-4.567-3.371
		l-10.664,12.149c1.987,1.139,4.098,2.048,6.144,3.25L245.896,328.089z M373.425,327.401c1.693,3.04,3.247-0.775,5.226-0.492
		C376.885,325.991,374.977,327.12,373.425,327.401z M203.045,327.896l-4.095-0.848l-0.285,0.708l2.544,1.695L203.045,327.896z
		 M328.852,327.896c-1.907,1.27-4.164,2.262-6.148,3.745c2.264,4.309,4.736,8.686,7.353,12.714c2.33-1.765,5.084-3.531,6.918-5.229
		L328.852,327.896z M366.287,328.745c2.191,1.766,4.521,3.32,6.778,4.944l0.217-3.603
		C371.372,328.109,368.688,327.473,366.287,328.745z M212.016,330.087l-4.731-1.13l-7.133,5.37l-1.201,6.496L212.016,330.087z
		 M364.806,330.652c-1.344-1.979-3.532-0.849-5.086-0.211l19.143,15.963c-1.978-2.402-3.322-5.085-4.45-7.84L364.806,330.652z
		 M250.511,330.934l-7.981,12.433l5.792,4.024c2.473-4.519,5.086-9.041,7.135-13.701L250.511,330.934z M219.348,332.652
		l-4.436-1.508l-18.647,15.896l-3.885,5.65c1.695-0.425,3.392-0.636,5.227-0.706L219.348,332.652z M357.318,331.145
		c-0.848,0.569-2.191,0.638-2.545,1.486c4.312,3.955,8.548,7.982,12.717,11.584l7.133,1.693
		C369.043,341.178,363.319,335.523,357.318,331.145z M352.232,333.336l-2.402,1.345l8.826,9.322c1.486-0.354,3.323,0.07,4.592-0.354
		L352.232,333.336z M221.693,333.689l-18.788,18.999l3.39,2.191c6.64-7.063,12.289-12.291,18.787-19.851L221.693,333.689z
		 M311.77,336.992c1.978,6.146,4.085,12.095,6.556,17.888l5.794-5.298c-2.048-5.017-4.451-9.96-6.637-14.901
		C315.562,335.492,313.815,336.425,311.77,336.992z M350.04,339.764l-4.729-4.733c-2.546,1.555-5.229,2.968-7.491,4.592
		l27.266,36.944c4.663-1.909,9.326-3.887,14.622-4.24v-0.354L350.04,339.764z M260.826,336.019l-6.573,16.317l6.29,6.287
		c2.33-6.782,4.167-13.702,6.215-20.553C264.711,337.645,262.964,336.652,260.826,336.019z M227.706,336.183l-19.22,21.735
		l1.482,2.399c6.712-7.484,13.487-15.315,19.915-23.016C229.249,336.734,228.47,336.476,227.706,336.183z M305.12,339.126
		c-2.545,0.566-5.23,0.867-7.631,1.344c1.626,11.09,2.752,22.957,4.873,33.907c2.618-4.102,5.651-8.198,8.828-11.866L305.12,339.126
		z M280.037,340.823l-6.496-1.201l-6.217,26.77c2.824,3.25,5.367,6.641,7.627,10.173l0.144-0.142L280.037,340.823z M236.808,340.612
		l-27.829,36.941c-0.143,0.848-1.341,1.129-1.341,2.049c3.46,0.494,6.639,1.696,9.814,2.894
		c8.125-12.996,16.601-25.851,24.44-38.987L236.808,340.612z M292.544,340.823c-2.234,0.274-4.749,0.187-6.787,0.142l-2.048,51.353
		c1.486,3.885,3.179,7.628,4.456,11.512c1.627-3.532,3.321-7.063,5.723-10.311L292.544,340.823z M331.538,347.885l-1.838-2.683
		c-1.696,1.344-3.813,3.039-4.942,4.593l19.493,42.027l8.125-7.275v-0.495L331.538,347.885z M253.761,352.479l-5.296-4.382
		c-6.991,13.495-14.411,26.911-21.19,40.476c3.038,2.472,5.721,4.804,8.689,7.63c0.068-0.071,0.21-0.142,0.14-0.282L253.761,352.479
		z M318.819,357.776l-0.986-1.907l-6.287,6.782l14.906,58.345c2.613-5.863,5.156-11.725,8.827-17.166L318.819,357.776z
		 M260.684,359.753l-14.763,48.316c2.967,4.448,5.439,9.112,7.982,13.772h0.351l12.856-55.096
		C265.204,364.346,262.874,361.873,260.684,359.753z M354.773,391.113c-2.044-0.633-4.59-0.281-6.287,1.062
		c-1.905,1.764-2.755,4.381-1.833,6.921c0.706,1.979,2.753,3.532,4.731,3.885c2.401,0.424,4.238-0.633,5.935-1.975
		c1.34-1.839,1.832-4.595,0.847-6.643C357.6,392.952,356.116,391.894,354.773,391.113z M330.674,319.481
		c-3.121,2.75-6.641,5.36-10.155,7.566l-1.205,4.238c5.108-2.178,9.628-5.798,13.928-9.41L330.674,319.481z M294.454,274.709
		c-1.695-0.637-2.263,1.693-3.395,2.544c-1.762-0.567-3.816,1.129-5.301-0.213c-0.849-0.143-1.344,0.495-2.049,0.707
		c-3.813,1.766-4.309-3.53-6.072-5.297c0.209,2.118,0.988,4.022,1.199,6.145c0.425-0.21,0.21-0.919,0.848-0.706
		c0.778,1.344,2.613,0.283,3.533,1.344c2.754-0.638,5.656,1.34,8.129-0.282c1.271-0.638,2.543,0.21,3.251,1.126
		c-0.142-1.482,0.915-3.674,0.983-5.72c0.071-1.271,2.265-1.767,1.204-3.248L294.454,274.709z M283.709,281.135l0.21,0.99
		c0.639,1.482,1.909,1.978,3.396,1.906c0.784-1.269,2.475-0.846,2.049-2.755C287.527,281.066,285.405,282.55,283.709,281.135z
		 M274.104,270.116c0.917,2.543,1.696,5.228,2.331,7.983c-0.282,0.494,0,1.343-0.848,1.484c-3.321-0.424-3.321-4.31-4.59-6.571
		c-0.212-1.554-0.496-3.602,0.706-4.803C273.114,267.714,273.469,269.411,274.104,270.116z M275.447,277.747
		c-0.285-2.967-1.274-6.428-3.393-8.476c-1.906,3.318,1.682,6.87,2.543,8.97h0.495C275.374,278.312,275.447,277.956,275.447,277.747
		z M282.227,272.163c0.282,0.71-0.634,1.486,0.354,1.839c0.423-0.353,0.493-0.919,1.128-0.704c1.91,1.34,4.279-1.335,5.94,0.209
		c0.494-0.92,0.778-1.904,0.848-2.894c0.068-0.991-1.344-1.062-1.838-0.498c0.919,2.404-1.982,1.414-2.689,2.686
		C284.415,273.86,283.499,271.673,282.227,272.163z M299.185,267.08c-1.414,0.069-2.898,1.553-4.589,0.988l-0.989-1.2
		c-1.202,0.708,0.067,1.695,0,2.541c-0.283,0.283-1.202,0.283-1.557-0.14c-1.13-0.99-1.345-2.543-1.345-3.744
		c0.849-0.774,2.687-0.353,2.901-1.835c-1.062-0.99-2.475-0.07-3.604-0.354c-0.211-1.061,0.989-0.706,1.344-1.343
		c1.199-0.99,4.166,1.413,3.389-1.552c-1.128-1.063-3.039-0.779-4.518-0.707c2.399-1.695,5.719-1.063,8.474-0.496l0.282,0.496
		c0,1.837-3.744,3.53-1.128,4.941c1.199,0.143,1.903-0.916,3.038-0.986C301.233,265.102,298.973,265.457,299.185,267.08z
		 M296.455,265.768c0,0-0.185-0.279-0.827,0c-0.64,0.276,0.048,0.919,0.048,0.919l0.526,0.023
		C296.47,266.512,296.918,266.227,296.455,265.768z M281.168,267.928c-0.635,0.85-1.696,1.411-2.825,1.344
		c0.424-0.639,1.907-0.707,1.837-1.906c-1.343,0.14-1.343-1.344-2.19-1.979c-2.259-0.07-2.401,2.542-3.884,3.179
		c-0.636-1.271,1.202-2.332,0.282-3.534c1.484-0.635,4.59,0.78,5.086-1.903c-1.342-1.061-3.037,0.21-4.521,0.35
		c-0.493,0.494-1.198,0.428-1.692,0.707c-0.354-0.632,0.847-1.27,1.128-1.693c0.92-0.424,2.544,0.21,2.756-1.202
		c-0.495-0.776-2.121,0.285-1.907-1.201c1.979-0.565,5.438-1.905,6.781,0.495c0.987,1.27-1.271,2.613,0.706,3.389
		C283.642,265.811,281.873,266.656,281.168,267.928z M281.382,265.007c-0.186-0.366-0.71-0.508-1.103-0.183
		c-0.093,0.461,0.362,0.939,0.822,0.849C281.376,265.488,281.382,265.285,281.382,265.007z"/>
	<path d="M98.062,175.539c-8.839,0-15.423-6.889-15.423-15.639c0-8.665,6.454-15.729,15.639-15.729c5.589,0,8.972,1.948,11.872,4.72
		l-3.422,3.945c-2.426-2.251-5.024-3.767-8.493-3.767c-5.803,0-10.007,4.766-10.007,10.743c0,5.977,4.203,10.832,10.007,10.832
		c3.727,0,6.11-1.516,8.709-3.943l3.424,3.465C107.203,173.461,103.737,175.539,98.062,175.539z M115.608,144.692v30.329h5.33
		v-30.329H115.608z M147.106,154.614c0,3.119-2.426,5.108-6.24,5.108h-7.799v-10.178h7.757
		C144.768,149.545,147.106,151.279,147.106,154.614z M153.476,175.021l-8.186-11.482c4.242-1.17,7.234-4.203,7.234-9.227
		c0-5.938-4.29-9.62-11.267-9.62h-13.519v30.329h5.329v-10.569h6.672l7.455,10.569H153.476z M219.485,144.692h-5.328v17.459
		c0,5.59-2.906,8.449-7.627,8.449c-4.765,0-7.67-3.031-7.67-8.665v-17.243h-5.328v17.459c0,8.797,5.026,13.347,12.911,13.347
		c7.931,0,13.04-4.55,13.04-13.607v-17.198H219.485z M248.428,144.692h-22.485v30.329h22.705v-4.768h-17.376v-8.143h15.21v-4.766
		h-15.21v-7.888h17.157L248.428,144.692L248.428,144.692z M289.884,159.9c0,5.979-4.141,10.266-10.518,10.266h-5.981v-20.621h5.981
		C285.744,149.545,289.884,153.919,289.884,159.9z M295.468,159.813c0-8.578-6.574-15.121-16.102-15.121h-11.309v30.329h11.309
		C288.894,175.021,295.468,168.393,295.468,159.813z M326.75,144.692h-5.329v17.459c0,5.59-2.9,8.449-7.626,8.449
		c-4.765,0-7.67-3.031-7.67-8.665v-17.243h-5.327v17.459c0,8.797,5.023,13.347,12.908,13.347c7.93,0,13.042-4.55,13.042-13.607
		v-17.198H326.75z M350.275,152.622c0-2.037,1.82-3.642,4.939-3.642c2.772,0,5.5,1.083,8.231,3.117l2.861-4.029
		c-3.078-2.467-6.584-3.811-11.006-3.811c-6.024,0-10.355,3.553-10.355,8.838c0,5.632,3.64,7.539,10.095,9.1
		c5.633,1.298,6.85,2.47,6.85,4.678c0,2.343-2.084,3.858-5.378,3.858c-3.77,0-6.669-1.433-9.577-3.943l-3.203,3.812
		c3.641,3.249,8.016,4.856,12.65,4.856c6.37,0,10.834-3.38,10.834-9.102c0-5.07-3.334-7.365-9.748-8.924
		C351.664,156.042,350.275,155.003,350.275,152.622z M397.633,159.9c0,5.934-4.204,10.744-10.225,10.744
		c-6.024,0-10.314-4.895-10.314-10.831c0-5.938,4.204-10.744,10.224-10.744C393.342,149.069,397.633,153.962,397.633,159.9z
		 M403.221,159.813c0-8.578-6.499-15.643-15.812-15.643c-9.316,0-15.9,7.149-15.9,15.729c0,8.577,6.498,15.639,15.81,15.639
		C396.631,175.539,403.221,168.393,403.221,159.813z M408.808,175.021h21.272v-4.855h-15.943v-25.474h-5.33L408.808,175.021
		L408.808,175.021z M457.464,144.692h-22.485v30.329h22.703v-4.768h-17.375v-8.143h15.208v-4.766h-15.208v-7.888h17.159v-4.766
		H457.464z M463.66,144.692v30.329h5.327v-30.329H463.66z M475.79,175.021h21.273v-4.855H481.12v-25.474h-5.33V175.021z
		 M182.559,159.937c0-5.936-4.283-10.827-10.313-10.827c-6.021,0-10.22,4.81-10.22,10.746c0,5.927,4.287,10.825,10.315,10.825
		C178.359,170.681,182.559,165.871,182.559,159.937z M166.989,174.752c-6.441-2.018-10.555-7.965-10.555-14.815
		c0-8.569,6.584-15.727,15.906-15.727c9.307,0,15.812,7.069,15.812,15.646c0,6.505-3.796,12.178-9.692,14.542
		c2.269,0.919,3.601,2.023,7.181,3.778c5.566,2.727,10.758,5.189,18.755,5.189c6.29,0,12.581-2.273,15.636-4.811l1.029,1.514
		c-3.741,3.715-12.39,6.494-20.165,6.494c-4.129,0-9.802-0.582-14.978-2.927c-3.521-1.598-7.963-3.991-11.051-5.492
		C172.714,177.093,168.885,175.424,166.989,174.752z"/>
	<g>
		<path d="M507.039,168.446c2.269,0,4.166,1.788,4.166,4.131c0,2.391-1.899,4.178-4.166,4.178c-2.277,0-4.188-1.787-4.188-4.178
			C502.852,170.234,504.761,168.446,507.039,168.446z M507.039,176.145c1.922,0,3.412-1.534,3.412-3.567
			c0-1.987-1.49-3.521-3.412-3.521c-1.944,0-3.431,1.534-3.431,3.521C503.607,174.611,505.095,176.145,507.039,176.145z
			 M505.417,170.167h1.877c1.157,0,1.7,0.457,1.7,1.391c0,0.877-0.555,1.243-1.276,1.321l1.39,2.143h-0.812l-1.322-2.087h-0.799
			v2.087h-0.758V170.167z M506.174,172.323h0.788c0.664,0,1.276-0.034,1.276-0.8c0-0.645-0.555-0.746-1.066-0.746h-0.998V172.323z"
			/>
	</g>
	<path d="M384.759,350.104h-1.676v4.63h-0.879v-4.63h-1.674v-0.713h4.23v0.713H384.759z M391.722,354.733h-0.878v-4.461h-0.027
		l-1.752,4.461h-0.559l-1.752-4.461h-0.024v4.461h-0.881v-5.343h1.36l1.597,4.059l1.566-4.059h1.35V354.733z"/>
</g>
</svg>
