<?xml version="1.0" encoding="UTF-8" standalone="no"?>
<!-- Generator: Adobe Illustrator 16.0.0, SVG Export Plug-In . SVG Version: 6.00 Build 0)  -->

<svg
   xmlns:dc="http://purl.org/dc/elements/1.1/"
   xmlns:cc="http://creativecommons.org/ns#"
   xmlns:rdf="http://www.w3.org/1999/02/22-rdf-syntax-ns#"
   xmlns:svg="http://www.w3.org/2000/svg"
   xmlns="http://www.w3.org/2000/svg"
   xmlns:xlink="http://www.w3.org/1999/xlink"
   xmlns:sodipodi="http://sodipodi.sourceforge.net/DTD/sodipodi-0.dtd"
   xmlns:inkscape="http://www.inkscape.org/namespaces/inkscape"
   version="1.1"
   id="Calque_1"
   x="0px"
   y="0px"
   width="1167.8739"
   height="146.17101"
   viewBox="0 0 1167.8739 146.171"
   enable-background="new 0 0 1167.87 146.171"
   xml:space="preserve"
   inkscape:version="0.91 r13725"
   sodipodi:docname="logotype.svg"><metadata
     id="metadata35"><rdf:RDF><cc:Work
         rdf:about=""><dc:format>image/svg+xml</dc:format><dc:type
           rdf:resource="http://purl.org/dc/dcmitype/StillImage" /><dc:title></dc:title></cc:Work></rdf:RDF></metadata><defs
     id="defs33" /><sodipodi:namedview
     pagecolor="#ffffff"
     bordercolor="#666666"
     borderopacity="1"
     objecttolerance="10"
     gridtolerance="10"
     guidetolerance="10"
     inkscape:pageopacity="0"
     inkscape:pageshadow="2"
     inkscape:window-width="640"
     inkscape:window-height="480"
     id="namedview31"
     showgrid="false"
     fit-margin-top="0"
     fit-margin-left="0"
     fit-margin-right="0"
     fit-margin-bottom="0"
     inkscape:zoom="0.34507266"
     inkscape:cx="583.935"
     inkscape:cy="73.085497"
     inkscape:window-x="0"
     inkscape:window-y="0"
     inkscape:window-maximized="0"
     inkscape:current-layer="Calque_1" /><polygon
     points="614.906,1.201 592.254,76.933 610.205,127.006 627.173,74.074 649.888,144.97 678.138,144.97 716.658,1.201 680.52,1.201 662.12,77.115 639.408,1.201 "
     id="polygon3"
     style="fill:#646363" /><g
     id="g5"><defs
       id="defs7"><rect
         id="SVGID_1_"
         width="1167.874"
         height="146.17101"
         x="0"
         y="0" /></defs><clipPath
       id="SVGID_2_"><use
         xlink:href="#SVGID_1_"
         overflow="visible"
         id="use11"
         style="overflow:visible"
         x="0"
         y="0"
         width="100%"
         height="100%" /></clipPath><path
       clip-path="url(#SVGID_2_)"
       d="M 94.252,130.017 C 82.196,142.733 68.77,146.171 53.35,146.171 36.947,146.171 24.502,140.543 14.232,130.017 -0.592,114.883 0.003,94.668 0.003,73.101 0.003,51.471 -0.592,31.288 14.232,16.153 24.502,5.643 36.353,0 53.35,0 c 36.169,0 51.558,24.016 54.923,47.653 l -34.771,0 C 70.735,36.763 65.197,31.5 53.35,31.5 c -6.34,0 -11.075,2.844 -13.635,6.252 -3.171,4.244 -5.15,9.08 -5.15,35.349 0,26.251 1.979,31.303 5.15,35.516 2.56,3.422 7.295,6.053 13.635,6.053 7.307,0 12.233,-2.205 15.42,-5.643 3.944,-4.031 5.328,-9.888 5.328,-15.362 l 0,-2.023 -20.748,0 0,-29.463 55.117,0 0,19.987 c 0,23.241 -3.559,36.747 -14.215,47.851"
       id="path13"
       inkscape:connector-curvature="0"
       style="fill:#df3227" /><path
       clip-path="url(#SVGID_2_)"
       d="m 302.871,32.915 -19.556,0 0,29.051 19.556,0 c 9.499,0 15.006,-7.041 15.006,-14.51 -0.001,-7.515 -5.507,-14.541 -15.006,-14.541 m 16.999,112.055 -24.915,-53.511 -11.64,0 0,53.511 -34.576,0 0,-143.769 55.712,0 c 31.227,0 48.016,22.634 48.016,46.255 0,19.576 -11.847,31.897 -22.922,37.555 l 30.424,59.959 -40.099,0 z"
       id="path15"
       inkscape:connector-curvature="0"
       style="fill:#df3227" /><path
       clip-path="url(#SVGID_2_)"
       d="m 437.695,40.763 c -3.156,-4.822 -7.919,-8.062 -16.611,-8.062 l -15.212,0 0,80.783 15.212,0 c 8.692,0 13.455,-3.241 16.611,-8.077 2.739,-4.046 3.751,-7.894 3.751,-32.307 0,-24.245 -1.012,-28.29 -3.751,-32.337 m 23.696,90.077 c -9.675,9.9 -23.308,14.13 -37.925,14.13 l -52.186,0 0,-143.77 52.186,0 c 14.617,0 28.25,4.229 37.925,14.146 16.403,16.747 14.617,35.136 14.617,57.754 0,22.603 1.785,40.977 -14.617,57.74"
       id="path17"
       inkscape:connector-curvature="0"
       style="fill:#df3227" /><path
       clip-path="url(#SVGID_2_)"
       d="m 1129.476,40.763 c -3.153,-4.822 -7.888,-8.062 -16.61,-8.062 l -15.212,0 0,80.783 15.212,0 c 8.723,0 13.457,-3.241 16.61,-8.077 2.769,-4.046 3.751,-7.894 3.751,-32.307 0,-24.245 -0.983,-28.29 -3.751,-32.337 m 23.727,90.077 c -9.676,9.9 -23.309,14.13 -37.955,14.13 l -52.185,0 0,-143.77 52.185,0 c 14.646,0 28.279,4.229 37.955,14.146 16.373,16.747 14.616,35.136 14.616,57.754 0,22.603 1.757,40.977 -14.616,57.74"
       id="path19"
       inkscape:connector-curvature="0"
       style="fill:#646363" /><path
       clip-path="url(#SVGID_2_)"
       d="m 784.054,37.752 c -2.56,-3.408 -7.471,-6.252 -13.781,-6.252 -6.342,0 -11.283,2.844 -13.873,6.252 -3.155,4.244 -5.12,9.08 -5.12,35.349 0,26.251 1.965,30.861 5.12,35.12 2.59,3.422 7.531,6.449 13.873,6.449 6.311,0 11.222,-3.027 13.781,-6.449 3.188,-4.259 5.15,-8.868 5.15,-35.12 0,-26.269 -1.963,-31.105 -5.15,-35.349 m 25.542,92.265 c -10.301,10.526 -22.147,16.154 -39.323,16.154 -17.235,0 -29.055,-5.628 -39.355,-16.154 -14.824,-15.134 -14.229,-35.349 -14.229,-56.916 0,-21.63 -0.596,-41.813 14.229,-56.948 C 741.218,5.643 753.037,0 770.272,0 c 17.176,0 29.022,5.643 39.323,16.153 14.796,15.135 14.17,35.318 14.17,56.948 10e-4,21.567 0.627,41.782 -14.169,56.916"
       id="path21"
       inkscape:connector-curvature="0"
       style="fill:#646363" /><path
       clip-path="url(#SVGID_2_)"
       d="m 889.378,32.915 -19.527,0 0,29.051 19.527,0 c 9.494,0 15.031,-7.041 15.031,-14.51 0,-7.515 -5.537,-14.541 -15.031,-14.541 m 16.996,112.055 -24.887,-53.511 -11.637,0 0,53.511 -34.593,0 0,-143.769 55.726,0 c 31.213,0 48.004,22.634 48.004,46.255 0,19.576 -11.818,31.897 -22.893,37.555 l 30.424,59.959 -40.144,0 z"
       id="path23"
       inkscape:connector-curvature="0"
       style="fill:#646363" /><polygon
       clip-path="url(#SVGID_2_)"
       points="992.542,113.484 1051.631,113.484 1051.631,144.97 957.979,144.97 957.979,1.201 992.542,1.201 "
       id="polygon25"
       style="fill:#646363" /><path
       clip-path="url(#SVGID_2_)"
       d="m 528.817,94.091 12.652,-38.376 11.847,38.376 -24.499,0 z m 25.125,-92.89 -26.672,0 -51.204,143.769 36.139,0 6.937,-21.402 29.173,0 7.114,-19.788 14.975,41.19 34.71,0 L 553.942,1.201 Z"
       id="path27"
       inkscape:connector-curvature="0"
       style="fill:#df3227" /><path
       clip-path="url(#SVGID_2_)"
       d="m 161.232,94.091 12.652,-38.376 11.847,38.376 -24.499,0 z m 25.08,-92.89 -26.673,0 -51.172,143.769 36.152,0 6.938,-21.402 29.173,0 7.086,-19.788 14.972,41.19 34.71,0 L 186.312,1.201 Z"
       id="path29"
       inkscape:connector-curvature="0"
       style="fill:#df3227" /></g></svg>